# Rhino

v -55.430469512939453 -42.801101684570313 0
v -55.430469512939453 57.523399353027344 0
v 52.178443908691406 -42.801101684570313 0
v 52.178443908691406 57.523399353027344 0
v -17.29859733581543 40.539466857910156 36.718471527099609
v -17.29859733581543 -25.817173004150391 36.718471527099609
v 14.046567916870117 40.539466857910156 36.718471527099609
v 14.046567916870117 -25.817173004150391 36.718471527099609
v -55.430469512939453 -42.801101684570313 0
v -55.430469512939453 57.523399353027344 0
v -45.073554992675781 -42.801101684570313 20
v -45.073554992675781 57.523399353027344 20
v -45.073554992675781 7.361147403717041 20
v -55.430469512939453 57.523399353027344 0
v 52.178443908691406 57.523399353027344 0
v -45.073554992675781 57.523399353027344 20
v 41.821525573730469 57.523399353027344 20
v -1.6260144710540771 57.523399353027344 20
v 52.178443908691406 57.523399353027344 0
v 52.178443908691406 -42.801101684570313 0
v 41.821525573730469 57.523399353027344 20
v 41.821525573730469 -42.801101684570313 20
v 41.821525573730469 7.361147403717041 20
v 52.178443908691406 -42.801101684570313 0
v -55.430469512939453 -42.801101684570313 0
v 41.821525573730469 -42.801101684570313 20
v -45.073554992675781 -42.801101684570313 20
v -1.6260144710540771 -42.801101684570313 20
v 33.961334228515625 40.539466857910156 20
v -37.213363647460938 40.539466857910156 20
v 41.821525573730469 57.523399353027344 20
v -45.073554992675781 57.523399353027344 20
v -1.6260144710540771 57.523399353027344 20
v -1.6260144710540771 40.539466857910156 20
v -37.213363647460938 40.539466857910156 20
v -37.213363647460938 -25.817173004150391 20
v -45.073554992675781 57.523399353027344 20
v -45.073554992675781 -42.801101684570313 20
v -45.073554992675781 7.361147403717041 20
v -37.213363647460938 7.361147403717041 20
v -37.213363647460938 -25.817173004150391 20
v 33.961334228515625 -25.817173004150391 20
v -45.073554992675781 -42.801101684570313 20
v 41.821525573730469 -42.801101684570313 20
v -1.6260144710540771 -42.801101684570313 20
v -1.6260144710540771 -25.817173004150391 20
v 33.961334228515625 -25.817173004150391 20
v 33.961334228515625 40.539466857910156 20
v 41.821525573730469 -42.801101684570313 20
v 41.821525573730469 57.523399353027344 20
v 41.821525573730469 7.361147403717041 20
v 33.961334228515625 7.361147403717041 20
v -37.213363647460938 -25.817173004150391 20
v -37.213363647460938 40.539466857910156 20
v -17.29859733581543 -25.817173004150391 36.718471527099609
v -17.29859733581543 40.539466857910156 36.718471527099609
v -37.213363647460938 7.361147403717041 20
v -37.213363647460938 40.539466857910156 20
v 33.961334228515625 40.539466857910156 20
v -17.29859733581543 40.539466857910156 36.718471527099609
v 14.046567916870117 40.539466857910156 36.718471527099609
v -1.6260144710540771 40.539466857910156 20
v 33.961334228515625 40.539466857910156 20
v 33.961334228515625 -25.817173004150391 20
v 14.046567916870117 40.539466857910156 36.718471527099609
v 14.046567916870117 -25.817173004150391 36.718471527099609
v 33.961334228515625 7.361147403717041 20
v 33.961334228515625 -25.817173004150391 20
v -37.213363647460938 -25.817173004150391 20
v 14.046567916870117 -25.817173004150391 36.718471527099609
v -17.29859733581543 -25.817173004150391 36.718471527099609
v -1.6260144710540771 -25.817173004150391 20
vn 0 0 -1
vn 0 0 -1
vn 0 0 -1
vn 0 0 -1
vn 0 0 1
vn 0 0 1
vn 0 0 1
vn 0 0 1
vn -0.88799852132797241 0 0.45984634757041931
vn -0.88799852132797241 0 0.45984634757041931
vn -0.88799852132797241 0 0.45984634757041931
vn -0.88799852132797241 0 0.45984634757041931
vn -0.88799852132797241 0 0.45984634757041931
vn 0 1 0
vn 0 1 0
vn 0 1 0
vn 0 1 0
vn 0 1 0
vn 0.88799852132797241 0 0.45984634757041931
vn 0.88799852132797241 0 0.45984634757041931
vn 0.88799852132797241 0 0.45984634757041931
vn 0.88799852132797241 0 0.45984634757041931
vn 0.88799852132797241 0 0.45984634757041931
vn 0 -1 0
vn 0 -1 0
vn 0 -1 0
vn 0 -1 0
vn 0 -1 0
vn 0 0 1
vn 0 0 1
vn 0 0 1
vn 0 0 1
vn 0 0 1
vn 0 0 1
vn 0 0 1
vn 0 0 1
vn 0 0 1
vn 0 0 1
vn 0 0 1
vn 0 0 1
vn 0 0 1
vn 0 0 1
vn 0 0 1
vn 0 0 1
vn 0 0 1
vn 0 0 1
vn 0 0 1
vn 0 0 1
vn 0 0 1
vn 0 0 1
vn 0 0 1
vn 0 0 1
vn -0.64296811819076538 0 0.76589298248291016
vn -0.64296811819076538 0 0.76589298248291016
vn -0.64296811819076538 0 0.76589298248291016
vn -0.64296811819076538 0 0.76589298248291016
vn -0.64296811819076538 0 0.76589298248291016
vn 0 1 0
vn 0 1 0
vn 0 1 0
vn 0 1 0
vn 0 1 0
vn 0.64296811819076538 0 0.76589298248291016
vn 0.64296811819076538 0 0.76589298248291016
vn 0.64296811819076538 0 0.76589298248291016
vn 0.64296811819076538 0 0.76589298248291016
vn 0.64296811819076538 0 0.76589298248291016
vn 0 -1 0
vn 0 -1 0
vn 0 -1 0
vn 0 -1 0
vn 0 -1 0
f 2//2 4//4 3//3
f 6//6 8//8 7//7
f 13//13 10//10 9//9
f 9//9 11//11 13//13
f 10//10 13//13 12//12
f 18//18 15//15 14//14
f 14//14 16//16 18//18
f 15//15 18//18 17//17
f 23//23 20//20 19//19
f 19//19 21//21 23//23
f 20//20 23//23 22//22
f 28//28 25//25 24//24
f 24//24 26//26 28//28
f 25//25 28//28 27//27
f 34//34 29//29 33//33
f 30//30 34//34 33//33
f 40//40 35//35 39//39
f 36//36 40//40 39//39
f 46//46 41//41 45//45
f 42//42 46//46 45//45
f 52//52 47//47 51//51
f 48//48 52//52 51//51
f 55//55 57//57 53//53
f 54//54 57//57 56//56
f 55//55 56//56 57//57
f 60//60 62//62 58//58
f 59//59 62//62 61//61
f 60//60 61//61 62//62
f 65//65 67//67 63//63
f 64//64 67//67 66//66
f 65//65 66//66 67//67
f 70//70 72//72 68//68
f 69//69 72//72 71//71
f 70//70 71//71 72//72
f 2//2 3//3 1//1
f 6//6 7//7 5//5
f 29//29 31//31 33//33
f 30//30 33//33 32//32
f 35//35 37//37 39//39
f 36//36 39//39 38//38
f 41//41 43//43 45//45
f 42//42 45//45 44//44
f 47//47 49//49 51//51
f 48//48 51//51 50//50
