# Rhino

v -30.374273300170898 -7.092766284942627 0
v -30.316196441650391 -7.3007659912109375 8.3504781723022461
v -29.78559684753418 8.6260032653808594 0
v -30.021284103393555 7.7630510330200195 17.539400100708008
v -23.046382904052734 20.933425903320313 22.92608642578125
v -11.386497497558594 29.310306549072266 30.05816650390625
v 1.7675487995147705 31.885021209716797 37.284122467041016
v 14.553637504577637 28.977840423583984 43.605922698974609
v 25.584234237670898 20.690200805664063 48.245433807373047
v 32.840930938720703 5.7790279388427734 49.964878082275391
v -22.971881866455078 -21.765499114990234 9.0252103805541992
v -30.286016464233398 -7.4939975738525391 15.308746337890625
v -9.6609220504760742 -30.754411697387695 11.272876739501953
v 4.7078499794006348 -32.452449798583984 0
v 18.677757263183594 -27.480018615722656 0
v 28.032264709472656 -18.235036849975586 0
v 32.911853790283203 -6.1066794395446777 0
v 32.66387939453125 6.5422582626342773 23.671630859375
v 27.570974349975586 18.123699188232422 23.056461334228516
v 18.526666641235352 26.770656585693359 21.106414794921875
v 6.5484204292297363 31.392951965332031 17.945268630981445
v -7.7165188789367676 30.606544494628906 14.843816757202148
v -23.206960678100586 -21.508243560791016 0
v -29.688297271728516 8.9371623992919922 9.3978900909423828
v 32.114028930664063 -9.4921054840087891 47.430526733398438
v 25.57794189453125 -21.494377136230469 42.298427581787109
v 15.253316879272461 -29.435535430908203 35.743995666503906
v 2.2478561401367188 -32.622890472412109 28.549442291259766
v -11.649943351745605 -30.002157211303711 21.779241561889648
v -23.635955810546875 -20.986955642700195 16.867828369140625
v -10.012395858764648 -30.635383605957031 0
v 5.6739535331726074 -32.323818206787109 14.177806854248047
v 19.273160934448242 -27.072994232177734 17.274085998535156
v 28.336494445800781 -17.750396728515625 20.471786499023438
v 32.922386169433594 -5.9753007888793945 22.732316970825195
v 32.700130462646484 6.4191441535949707 0
v 27.502296447753906 18.246791839599609 0
v 18.281951904296875 26.941659927368164 0
v 5.4947309494018555 31.576921463012695 0
v -8.7846136093139648 30.28407096862793 0
v -21.460775375366211 22.560413360595703 11.779539108276367
v -21.529794692993164 22.502038955688477 0
vn 0.97761362791061401 0.21040232479572296 -0.0015583538915961981
vn 0.93647879362106323 0.35069736838340759 -0.0043427823111414909
vn 0.95903211832046509 -0.28329724073410034 -0.00023339540348388255
vn 0.92335504293441772 -0.38302096724510193 0.02665424719452858
vn 0.6414107084274292 -0.7665141224861145 0.032379910349845886
vn 0.24219343066215515 -0.96973186731338501 0.031023116782307625
vn -0.17188805341720581 -0.98475885391235352 0.026541309431195259
vn -0.54676157236099243 -0.83711719512939453 0.016927957534790039
vn -0.84745615720748901 -0.53085744380950928 -0.0029077662620693445
vn -0.97932577133178711 -0.20228810608386993 0.00072256935527548194
vn 0.77402991056442261 0.63309675455093384 0.0081328433007001877
vn 0.94310891628265381 0.33205914497375488 0.016802316531538963
vn 0.48763614892959595 0.87287670373916626 -0.017241772264242172
vn 0.0021759369410574436 0.99999350309371948 0.0028727899771183729
vn -0.44166913628578186 0.89715343713760376 0.0066382978111505508
vn -0.77475821971893311 0.63224786520004272 0.0035163005813956261
vn -0.96106666326522827 0.27630782127380371 0.0022050247061997652
vn -0.99924778938293457 -0.038241401314735413 -0.0064397542737424374
vn -0.89092987775802612 -0.45389926433563232 -0.014813735149800777
vn -0.64464634656906128 -0.76411139965057373 -0.023766450583934784
vn -0.29341840744018555 -0.95554965734481812 -0.028817392885684967
vn 0.13082677125930786 -0.99083250761032104 -0.033693414181470871
vn 0.75475329160690308 0.65600168704986572 0.0030380506068468094
vn 0.9689599871635437 -0.24705116450786591 0.0090724769979715347
vn -0.96901237964630127 0.24671022593975067 0.012210949324071407
vn -0.78954118490219116 0.61325782537460327 0.023228537291288376
vn -0.48291748762130737 0.87513959407806396 0.030354226008057594
vn -0.078272216022014618 0.99647849798202515 0.030068444088101387
vn 0.37172231078147888 0.92787623405456543 0.029464846476912498
vn 0.75851458311080933 0.65131163597106934 0.021185571327805519
vn 0.4636152982711792 0.88602840900421143 0.0038065598346292973
vn 0.026507353410124779 0.99931138753890991 -0.025962721556425095
vn -0.41963636875152588 0.90715354681015015 -0.031269494444131851
vn -0.75581216812133789 0.65406608581542969 -0.030750233680009842
vn -0.95191770792007446 0.30525615811347961 -0.025910597294569016
vn -0.9931485652923584 -0.11685848236083984 7.9743847891222686E-05
vn -0.8180733323097229 -0.57511383295059204 0.0003611220745369792
vn -0.52850419282913208 -0.84892594814300537 0.0028300648555159569
vn -0.13636381924152374 -0.9906424880027771 0.0056888749822974205
vn 0.3102557361125946 -0.95064669847488403 0.0034918175078928471
vn 0.64435040950775146 -0.76466965675354004 -0.009637126699090004
vn 0.71004831790924072 -0.70415002107620239 0.002041027182713151
f 1//1 2//2 23//23
f 1//1 3//3 2//2
f 24//24 4//4 12//12
f 24//24 3//3 42//42
f 24//24 41//41 4//4
f 5//5 41//41 22//22
f 6//6 22//22 21//21
f 7//7 21//21 20//20
f 8//8 20//20 19//19
f 9//9 19//19 18//18
f 10//10 18//18 25//25
f 25//25 35//35 26//26
f 26//26 34//34 27//27
f 27//27 33//33 28//28
f 28//28 32//32 29//29
f 29//29 13//13 30//30
f 30//30 11//11 12//12
f 13//13 32//32 14//14
f 13//13 31//31 11//11
f 14//14 32//32 15//15
f 15//15 33//33 16//16
f 16//16 34//34 17//17
f 17//17 35//35 36//36
f 36//36 18//18 19//19
f 37//37 19//19 20//20
f 38//38 20//20 21//21
f 39//39 21//21 22//22
f 40//40 22//22 41//41
f 2//2 11//11 23//23
f 3//3 24//24 2//2
f 24//24 12//12 2//2
f 24//24 42//42 41//41
f 41//41 5//5 4//4
f 5//5 22//22 6//6
f 6//6 21//21 7//7
f 7//7 20//20 8//8
f 8//8 19//19 9//9
f 9//9 18//18 10//10
f 18//18 35//35 25//25
f 35//35 34//34 26//26
f 34//34 33//33 27//27
f 33//33 32//32 28//28
f 32//32 13//13 29//29
f 13//13 11//11 30//30
f 11//11 2//2 12//12
f 13//13 14//14 31//31
f 31//31 23//23 11//11
f 32//32 33//33 15//15
f 33//33 34//34 16//16
f 34//34 35//35 17//17
f 35//35 18//18 36//36
f 36//36 19//19 37//37
f 37//37 20//20 38//38
f 38//38 21//21 39//39
f 39//39 22//22 40//40
f 40//40 41//41 42//42
